<?xml version="1.0" encoding="UTF-8"?>
<svg id="Layer_1" data-name="Layer 1" xmlns="http://www.w3.org/2000/svg" viewBox="0 0 1274.58 579.19">
  <defs>
    <style>
      .cls-1 {
        font-family: SabbathBlackOT-Regular, 'SabbathBlack OT';
        font-size: 184px;
      }

      .cls-2 {
        fill: #8cc63f;
      }

      .cls-2, .cls-3, .cls-4, .cls-5, .cls-6 {
        stroke: #000;
        stroke-miterlimit: 10;
      }

      .cls-2, .cls-4 {
        stroke-width: 9px;
      }

      .cls-7 {
        font-family: Baskerville, Baskerville;
        font-size: 491.37px;
      }

      .cls-3 {
        fill: #fff;
      }

      .cls-3, .cls-6 {
        stroke-width: 7px;
      }

      .cls-8 {
        font-family: BodoniOrnamentsITCTT, 'Bodoni Ornaments';
        font-size: 73.71px;
      }

      .cls-5 {
        fill: #fff5bf;
        stroke-width: 14px;
      }
    </style>
  </defs>
  <rect class="cls-5" x="8.37" y="42.64" width="421.76" height="421.76"/>
  <text class="cls-7" transform="translate(60.98 410.04)"><tspan x="0" y="0">C</tspan></text>
  <path class="cls-4" d="M256.01,355.62v0Z"/>
  <path class="cls-4" d="M198.38,338.32l41.12-41.12-41.12,41.12Z"/>
  <path class="cls-4" d="M314.02,338.03l-41.12-41.12,41.12,41.12Z"/>
  <text class="cls-8" transform="translate(9.95 381.78) rotate(45)"><tspan x="0" y="0">l</tspan></text>
  <text class="cls-8" transform="translate(10.12 123.97) rotate(-45) scale(1 -1)"><tspan x="0" y="0">l</tspan></text>
  <polygon class="cls-2" points="174.06 277.94 256.71 135.55 339 278.09 174.06 277.94"/>
  <path class="cls-3" d="M214.83,219.71c22.89-22.89,59.92-22.89,82.81,0l.07,2.9c-22.89,22.89-59.92,22.89-82.81,0l-.07-2.9Z"/>
  <circle class="cls-6" cx="256.1" cy="220.76" r="16.38"/>
  <text class="cls-1" transform="translate(443.65 409.81)"><tspan x="0" y="0">onspirapedia</tspan></text>
</svg>