<?xml version="1.0" encoding="UTF-8"?><svg xmlns="http://www.w3.org/2000/svg" width="556.01" height="1094.63" viewBox="0 0 556.01 1094.63"><defs><style>.cls-1,.cls-2,.cls-3,.cls-4{fill:#f5f3d0;}.cls-1,.cls-2,.cls-3,.cls-4,.cls-5{stroke:#000;}.cls-1,.cls-2,.cls-3,.cls-4,.cls-5,.cls-6{stroke-miterlimit:10;}.cls-1,.cls-2,.cls-5{stroke-dasharray:0 0 0 0 0 0 0 0 0 0 0 0;}.cls-1,.cls-4,.cls-5{stroke-width:2px;}.cls-2{stroke-width:3px;}.cls-5{fill:#f3f5d0;}.cls-6{fill:none;stroke:#3d3c2c;}</style></defs><g id="Layer_1"><path class="cls-3" d="M554.92,364.72c-1-25.27-8.7-37.93-29.16-40.62l-360.18-47.44c-20.45-2.69-39.22,11.7-41.91,32.16-3.1,23.51-10.66,79.14-10.66,79.14,0,0-1.28,11.01-2.22,18.57,.29,.04,.58,.07,.86,.13,.08,.02,.85,.16,.9,.24-.88-.08-.72-.05,.47,.09l-.05,.3c.68,.19,.64,1.78,1.1,2.34,.93,1.14,6.45,1.05,5.54,2.41-.4,.6-4.78,1.21-5.35,1.62-.24,.17-.12,.08,.03-.04l-.17,.13c-.5,.39-1.82,.41-2.43,.57-.8,.21-1.01,.69-1.95,.7-.03,0-.05,.02-.05,.05-3.56,27.13,0,55.82-11.27,85.57-.97,2.55-2.12,10.13-3.04,12.71,2.18,5.53,3.53-.37,4.73,12.82,.04,.44-.17,.84-.36,1.2,.05,.26,.6-.49,.67-.23-.68,13.28-1.65,6.16-3.04,1.5-.58-1.96-6.03-3.81-6.08-5.78-.37-.61-.19,.24-.47-.42-21.95,68.55-28.9,144.62-32.79,213.47,3.3,.4,5.56,2.22,7.46,3.89,.1,.09-.4-.75-.35-.62,.87,.08,.22,3.56,1.04,4.06,2.31,1.41,4.29,2.69,2.08,4.01-.26,.32-6.1,.36-6.53,.6-3.23,1.77-.98,1.55-4.4,2.43-.03,0-.05,0-.08,.01-2.5,48.2-3.88,92.24-8.42,126.81-2.7,20.5,11.7,39.31,32.2,42.01l360.13,47.43c29.15,3.84,53.59-18.46,53.91-49.16,.32-31.09,3.78-68.99,8.87-110.64-.07-.06-.13-.11-.2-.17-1.55-1.56-2.35-4.11-3.73-5.82-.98-1.21-2.92-1.43-3.44-2.9-.1-.27-.14-.55-.14-.82-3.68-6.21,.33-.6,4.62-1.76,1.11-.3,1.95-2.07,3.09-1.65,.47,.17,.92,.38,1.36,.6,6.72-52.62,15.76-110.57,24.3-168.02-.03-.01-.07-.03-.1-.04-1.27-1.08-1.48-1.19-.63-.35-.59-.15-1.19-.29-1.78-.43-1.24-.28-2.16-.55-3.37-.98,.49,.23-.12,.21-.84-.07-.95-.27-4.27-3.24-4.97-3.94-.97-.89-6.36,.41-6.36,.41,0,0,8.15-6.46,10.9-7.37,3-1,6.53,1.6,9.53,.59,13.62-92.79,25.21-186.82,22.73-249.32Z"/><path class="cls-3" d="M451.64,846.83c-3.01,2.8-5.81,5.82-8.38,9.03"/><path class="cls-3" d="M451.11,854.23l6.93-8.91"/><path class="cls-1" d="M441.9,965.8l-273.37-33.5c-.48-.06-.97-.07-1.45-.03-11.86,.94-165.67,12.57-164.36-13.93l-1.65-14.35c-.09-.76-.09-1.52,.02-2.28,.08-.56,.2-1.11,.35-1.65,10.29-36.51,23.27-34.64,55.42-44.79,1.85-.59,3.82-.84,5.78-.74l391.18,19.17c.5,.02-2.84,.06-2.84,.06"/><path class="cls-4" d="M104.45,307.39l1.84-10.03c15.19-38.94,26.79-34.07,59.7-41.77l350.44,64.3c41.06,4.47-26.55,11.09-26.52,42.67l49.51,.06c-.09,42.06-33.45,56.58-33.45,56.58l-352.01-58.06c-27.81-5.09-54.68-25.59-49.52-53.76Z"/><path class="cls-2" d="M490.22,362.57c0,6.58,.54,21.66,2.3,30.75,1.76,9.08,5.52,18.1,12.6,25.7"/><path class="cls-5" d="M443.8,966.23c-12.96-22.81-25.19-43.59-21.68-69.79,1.44-10.76,11.41-24.17,21.83-25.68,3.27-.47,8.54-.41,11.76,.35,6.87,1.62,13.73,1.97,18.37,7.44,5.75,6.77,5.58,16.77,5.1,25.76-.51,9.52-4.77,20.47-4.77,20.47,0,0-32.05-14.34-50.33-3.86"/><path d="M54.68,544.52c.29,0,.58-.5,.87-.5-.29,0-.58,.5-.87,.5h0Z"/><path d="M21.58,727.42c.29,0,.58-.5,.87-.5-.29,0-.58,.5-.87,.5h0Z"/><path d="M44.37,298.53c.29,0,.58-.5,.87-.5-.29,0-.58,.5-.87,.5h0Z"/><path class="cls-3" d="M500,436.71l14.81,6.74"/><path class="cls-3" d="M490.88,437.67c5.9,1.91,11.57,4.51,16.87,7.72"/><path class="cls-3" d="M476.03,439.87c10.57,5.32,21.14,10.64,31.7,15.96"/></g><g id="Layer_3"><path class="cls-6" d="M69.27,830.81l8.33,5.31c.37,.24,.79,.49,1.23,.43"/><path class="cls-6" d="M71.49,825.15c3.47,6.17,8.34,11.54,14.13,15.61"/><path class="cls-6" d="M461.59,833.83c-8.67,7.1-17.33,14.19-26,21.29"/></g></svg>